<mxfile host="app.diagrams.net" modified="2023-11-02T11:37:29.405Z" agent="Mozilla/5.0 (Windows NT 10.0; Win64; x64; rv:109.0) Gecko/20100101 Firefox/119.0" etag="PEIB3sDOQ6cTfPFfF4md" version="22.0.8" type="device">
  <diagram name="Seite-1" id="XE3J6MwuaCHnsHoTBa3w">
    <mxGraphModel dx="2049" dy="1073" grid="1" gridSize="10" guides="1" tooltips="1" connect="1" arrows="1" fold="1" page="1" pageScale="1" pageWidth="827" pageHeight="1169" math="0" shadow="0">
      <root>
        <mxCell id="0" />
        <mxCell id="1" parent="0" />
        <mxCell id="OURwhKMCkHObsWXmyVqX-9" value="Online - Fahrkartenkauf" style="rounded=0;whiteSpace=wrap;html=1;verticalAlign=top;" parent="1" vertex="1">
          <mxGeometry x="200" y="80" width="720" height="600" as="geometry" />
        </mxCell>
        <mxCell id="OURwhKMCkHObsWXmyVqX-1" value="&lt;span&gt;Fahrkarte&lt;br&gt;kaufen&lt;/span&gt;" style="ellipse;whiteSpace=wrap;html=1;fontStyle=1" parent="1" vertex="1">
          <mxGeometry x="220" y="210" width="120" height="80" as="geometry" />
        </mxCell>
        <mxCell id="OURwhKMCkHObsWXmyVqX-2" value="&lt;b&gt;Kunde&lt;/b&gt;" style="shape=umlActor;verticalLabelPosition=bottom;verticalAlign=top;html=1;outlineConnect=0;" parent="1" vertex="1">
          <mxGeometry x="105" y="120" width="30" height="60" as="geometry" />
        </mxCell>
        <mxCell id="OURwhKMCkHObsWXmyVqX-4" value="&lt;div&gt;&lt;span&gt;Fahrkarte&lt;/span&gt;&lt;/div&gt;&lt;div&gt;&lt;span&gt;drucken&lt;/span&gt;&lt;br&gt;&lt;/div&gt;" style="ellipse;whiteSpace=wrap;html=1;fontStyle=1" parent="1" vertex="1">
          <mxGeometry x="220" y="470" width="120" height="80" as="geometry" />
        </mxCell>
        <mxCell id="OURwhKMCkHObsWXmyVqX-5" value="&lt;div&gt;&lt;span&gt;Fahrkarte&lt;/span&gt;&lt;/div&gt;&lt;div&gt;&lt;span&gt;bezahlen&lt;br&gt;&lt;/span&gt;&lt;/div&gt;" style="ellipse;whiteSpace=wrap;html=1;fontStyle=1" parent="1" vertex="1">
          <mxGeometry x="374" y="460" width="120" height="80" as="geometry" />
        </mxCell>
        <mxCell id="OURwhKMCkHObsWXmyVqX-6" value="" style="endArrow=none;html=1;rounded=0;" parent="1" source="OURwhKMCkHObsWXmyVqX-2" target="OURwhKMCkHObsWXmyVqX-1" edge="1">
          <mxGeometry width="50" height="50" relative="1" as="geometry">
            <mxPoint x="470" y="320" as="sourcePoint" />
            <mxPoint x="520" y="270" as="targetPoint" />
          </mxGeometry>
        </mxCell>
        <mxCell id="_wjKEWHGWOJlkBvC2Mfe-1" value="&lt;div&gt;&lt;span&gt;per Lastschrift bezahlen&lt;br&gt;&lt;/span&gt;&lt;/div&gt;" style="ellipse;whiteSpace=wrap;html=1;fontStyle=1" parent="1" vertex="1">
          <mxGeometry x="290" y="590" width="110" height="70" as="geometry" />
        </mxCell>
        <mxCell id="_wjKEWHGWOJlkBvC2Mfe-2" value="&lt;span&gt;mit Kreditkarte bezahlen&lt;br&gt;&lt;/span&gt;" style="ellipse;whiteSpace=wrap;html=1;fontStyle=1" parent="1" vertex="1">
          <mxGeometry x="415" y="580" width="115" height="70" as="geometry" />
        </mxCell>
        <mxCell id="_wjKEWHGWOJlkBvC2Mfe-3" value="&lt;span&gt;Bonuspunkte einsetzen&lt;br&gt;&lt;/span&gt;" style="ellipse;whiteSpace=wrap;html=1;fontStyle=1" parent="1" vertex="1">
          <mxGeometry x="540" y="555" width="120" height="70" as="geometry" />
        </mxCell>
        <mxCell id="_wjKEWHGWOJlkBvC2Mfe-5" value="Platz reservieren" style="ellipse;whiteSpace=wrap;html=1;fontStyle=1" parent="1" vertex="1">
          <mxGeometry x="774" y="110" width="120" height="80" as="geometry" />
        </mxCell>
        <mxCell id="_wjKEWHGWOJlkBvC2Mfe-6" value="Bahncard-Nummer eingeben" style="ellipse;whiteSpace=wrap;html=1;fontStyle=1" parent="1" vertex="1">
          <mxGeometry x="770" y="490" width="130" height="80" as="geometry" />
        </mxCell>
        <mxCell id="_wjKEWHGWOJlkBvC2Mfe-7" value="Bonuspunkte erhalten" style="ellipse;whiteSpace=wrap;html=1;fontStyle=1" parent="1" vertex="1">
          <mxGeometry x="760" y="320" width="120" height="80" as="geometry" />
        </mxCell>
        <mxCell id="wX4N4pc1kYw8POhRxZg2-2" value="&lt;div&gt;&amp;lt;&amp;lt;Akteur&amp;gt;&amp;gt;&lt;/div&gt;&lt;div&gt;&lt;b&gt;Drucker&lt;/b&gt;&lt;br&gt;&lt;/div&gt;" style="rounded=0;whiteSpace=wrap;html=1;" parent="1" vertex="1">
          <mxGeometry x="80" y="560" width="80" height="50" as="geometry" />
        </mxCell>
        <mxCell id="wX4N4pc1kYw8POhRxZg2-4" value="&amp;lt;&amp;lt;include&amp;gt;&amp;gt;" style="html=1;verticalAlign=bottom;labelBackgroundColor=none;endArrow=open;endFill=0;dashed=1;rounded=0;" parent="1" source="OURwhKMCkHObsWXmyVqX-1" target="OURwhKMCkHObsWXmyVqX-4" edge="1">
          <mxGeometry width="160" relative="1" as="geometry">
            <mxPoint x="710" y="410" as="sourcePoint" />
            <mxPoint x="870" y="410" as="targetPoint" />
          </mxGeometry>
        </mxCell>
        <mxCell id="wX4N4pc1kYw8POhRxZg2-5" value="&amp;lt;&amp;lt;include&amp;gt;&amp;gt;" style="html=1;verticalAlign=bottom;labelBackgroundColor=none;endArrow=open;endFill=0;dashed=1;rounded=0;" parent="1" source="OURwhKMCkHObsWXmyVqX-1" target="OURwhKMCkHObsWXmyVqX-5" edge="1">
          <mxGeometry width="160" relative="1" as="geometry">
            <mxPoint x="720" y="420" as="sourcePoint" />
            <mxPoint x="880" y="420" as="targetPoint" />
          </mxGeometry>
        </mxCell>
        <mxCell id="wX4N4pc1kYw8POhRxZg2-6" value="&amp;lt;&amp;lt;include&amp;gt;&amp;gt;" style="html=1;verticalAlign=bottom;labelBackgroundColor=none;endArrow=open;endFill=0;dashed=1;rounded=0;" parent="1" source="OURwhKMCkHObsWXmyVqX-1" target="B6rzJg1NiOWsUtKU1mbM-6" edge="1">
          <mxGeometry width="160" relative="1" as="geometry">
            <mxPoint x="730" y="430" as="sourcePoint" />
            <mxPoint x="445.13041285583404" y="177.5228059934144" as="targetPoint" />
          </mxGeometry>
        </mxCell>
        <mxCell id="wX4N4pc1kYw8POhRxZg2-7" value="&amp;lt;&amp;lt;include&amp;gt;&amp;gt;" style="html=1;verticalAlign=bottom;labelBackgroundColor=none;endArrow=open;endFill=0;dashed=1;rounded=0;" parent="1" source="_wjKEWHGWOJlkBvC2Mfe-7" target="_wjKEWHGWOJlkBvC2Mfe-6" edge="1">
          <mxGeometry width="160" relative="1" as="geometry">
            <mxPoint x="740" y="440" as="sourcePoint" />
            <mxPoint x="900" y="440" as="targetPoint" />
          </mxGeometry>
        </mxCell>
        <mxCell id="wX4N4pc1kYw8POhRxZg2-8" value="&amp;lt;&amp;lt;include&amp;gt;&amp;gt;" style="html=1;verticalAlign=bottom;labelBackgroundColor=none;endArrow=open;endFill=0;dashed=1;rounded=0;" parent="1" source="_wjKEWHGWOJlkBvC2Mfe-3" target="_wjKEWHGWOJlkBvC2Mfe-6" edge="1">
          <mxGeometry width="160" relative="1" as="geometry">
            <mxPoint x="750" y="450" as="sourcePoint" />
            <mxPoint x="910" y="450" as="targetPoint" />
          </mxGeometry>
        </mxCell>
        <mxCell id="wX4N4pc1kYw8POhRxZg2-10" value="&amp;lt;&amp;lt;extend&amp;gt;&amp;gt;" style="html=1;verticalAlign=bottom;labelBackgroundColor=none;endArrow=open;endFill=0;dashed=1;rounded=0;" parent="1" source="_wjKEWHGWOJlkBvC2Mfe-7" target="OURwhKMCkHObsWXmyVqX-1" edge="1">
          <mxGeometry width="160" relative="1" as="geometry">
            <mxPoint x="710" y="510" as="sourcePoint" />
            <mxPoint x="870" y="510" as="targetPoint" />
          </mxGeometry>
        </mxCell>
        <mxCell id="wX4N4pc1kYw8POhRxZg2-11" value="&amp;lt;&amp;lt;extend&amp;gt;&amp;gt;" style="html=1;verticalAlign=bottom;labelBackgroundColor=none;endArrow=open;endFill=0;dashed=1;rounded=0;" parent="1" source="_wjKEWHGWOJlkBvC2Mfe-5" target="B6rzJg1NiOWsUtKU1mbM-6" edge="1">
          <mxGeometry width="160" relative="1" as="geometry">
            <mxPoint x="720" y="520" as="sourcePoint" />
            <mxPoint x="569.9374444343516" y="158.02621749439663" as="targetPoint" />
          </mxGeometry>
        </mxCell>
        <mxCell id="wX4N4pc1kYw8POhRxZg2-12" value="" style="endArrow=open;startArrow=none;endFill=0;startFill=0;endSize=8;html=1;verticalAlign=bottom;labelBackgroundColor=none;strokeWidth=1;rounded=0;" parent="1" source="OURwhKMCkHObsWXmyVqX-4" target="wX4N4pc1kYw8POhRxZg2-2" edge="1">
          <mxGeometry width="160" relative="1" as="geometry">
            <mxPoint x="150" y="310" as="sourcePoint" />
            <mxPoint x="520" y="290" as="targetPoint" />
          </mxGeometry>
        </mxCell>
        <mxCell id="wX4N4pc1kYw8POhRxZg2-13" value="" style="endArrow=block;html=1;rounded=0;endFill=0;" parent="1" source="_wjKEWHGWOJlkBvC2Mfe-1" target="OURwhKMCkHObsWXmyVqX-5" edge="1">
          <mxGeometry width="50" height="50" relative="1" as="geometry">
            <mxPoint x="410" y="320" as="sourcePoint" />
            <mxPoint x="460" y="270" as="targetPoint" />
          </mxGeometry>
        </mxCell>
        <mxCell id="wX4N4pc1kYw8POhRxZg2-14" value="" style="endArrow=block;html=1;rounded=0;endFill=0;" parent="1" source="_wjKEWHGWOJlkBvC2Mfe-2" target="OURwhKMCkHObsWXmyVqX-5" edge="1">
          <mxGeometry width="50" height="50" relative="1" as="geometry">
            <mxPoint x="380" y="373" as="sourcePoint" />
            <mxPoint x="407" y="327" as="targetPoint" />
          </mxGeometry>
        </mxCell>
        <mxCell id="wX4N4pc1kYw8POhRxZg2-15" value="" style="endArrow=block;html=1;rounded=0;endFill=0;" parent="1" source="_wjKEWHGWOJlkBvC2Mfe-3" target="OURwhKMCkHObsWXmyVqX-5" edge="1">
          <mxGeometry width="50" height="50" relative="1" as="geometry">
            <mxPoint x="390" y="383" as="sourcePoint" />
            <mxPoint x="417" y="337" as="targetPoint" />
          </mxGeometry>
        </mxCell>
        <mxCell id="wX4N4pc1kYw8POhRxZg2-16" value="extension point: Reservierung" style="shape=note2;boundedLbl=1;whiteSpace=wrap;html=1;size=25;verticalAlign=top;align=left;spacingLeft=5;" parent="1" vertex="1">
          <mxGeometry x="650" y="220" width="260" height="60" as="geometry" />
        </mxCell>
        <mxCell id="wX4N4pc1kYw8POhRxZg2-17" value="condition: {Kunde wünscht Reservierung}" style="resizeWidth=1;part=1;strokeColor=none;fillColor=none;align=left;spacingLeft=5;whiteSpace=wrap;html=1;" parent="wX4N4pc1kYw8POhRxZg2-16" vertex="1">
          <mxGeometry width="260.00000000000006" height="25" relative="1" as="geometry" />
        </mxCell>
        <mxCell id="wX4N4pc1kYw8POhRxZg2-18" value="" style="shape=note2;boundedLbl=1;whiteSpace=wrap;html=1;size=25;verticalAlign=top;align=left;spacingLeft=5;" parent="1" vertex="1">
          <mxGeometry x="450" y="370" width="270" height="45" as="geometry" />
        </mxCell>
        <mxCell id="wX4N4pc1kYw8POhRxZg2-19" value="condition: {Teilnahme am Bonusprogramm}" style="resizeWidth=1;part=1;strokeColor=none;fillColor=none;align=left;spacingLeft=5;whiteSpace=wrap;html=1;" parent="wX4N4pc1kYw8POhRxZg2-18" vertex="1">
          <mxGeometry width="270" height="25" relative="1" as="geometry" />
        </mxCell>
        <mxCell id="wX4N4pc1kYw8POhRxZg2-26" value="" style="endArrow=oval;html=1;rounded=0;endFill=0;dashed=1;" parent="1" source="wX4N4pc1kYw8POhRxZg2-18" edge="1">
          <mxGeometry width="50" height="50" relative="1" as="geometry">
            <mxPoint x="588.6486486486488" y="385" as="sourcePoint" />
            <mxPoint x="600" y="315" as="targetPoint" />
          </mxGeometry>
        </mxCell>
        <mxCell id="wX4N4pc1kYw8POhRxZg2-28" value="" style="endArrow=oval;html=1;rounded=0;endFill=0;dashed=1;" parent="1" source="wX4N4pc1kYw8POhRxZg2-16" edge="1">
          <mxGeometry width="50" height="50" relative="1" as="geometry">
            <mxPoint x="751.6666666666665" y="223" as="sourcePoint" />
            <mxPoint x="705" y="163" as="targetPoint" />
          </mxGeometry>
        </mxCell>
        <mxCell id="B6rzJg1NiOWsUtKU1mbM-6" value="" style="shape=ellipse;container=1;horizontal=1;horizontalStack=0;resizeParent=1;resizeParentMax=0;resizeLast=0;html=1;dashed=0;collapsible=0;" vertex="1" parent="1">
          <mxGeometry x="440" y="120" width="180" height="120" as="geometry" />
        </mxCell>
        <mxCell id="B6rzJg1NiOWsUtKU1mbM-7" value="Zug auswählen" style="html=1;strokeColor=none;fillColor=none;align=center;verticalAlign=middle;rotatable=0;whiteSpace=wrap;fontStyle=1" vertex="1" parent="B6rzJg1NiOWsUtKU1mbM-6">
          <mxGeometry y="4" width="180" height="30" as="geometry" />
        </mxCell>
        <mxCell id="B6rzJg1NiOWsUtKU1mbM-8" value="" style="line;strokeWidth=1;fillColor=none;rotatable=0;labelPosition=right;points=[];portConstraint=eastwest;dashed=0;resizeWidth=1;" vertex="1" parent="B6rzJg1NiOWsUtKU1mbM-6">
          <mxGeometry x="9" y="30" width="162" height="10" as="geometry" />
        </mxCell>
        <mxCell id="B6rzJg1NiOWsUtKU1mbM-9" value="extension points:" style="text;html=1;align=center;verticalAlign=middle;rotatable=0;fillColor=none;strokeColor=none;whiteSpace=wrap;fontStyle=1" vertex="1" parent="B6rzJg1NiOWsUtKU1mbM-6">
          <mxGeometry y="40" width="180" height="30" as="geometry" />
        </mxCell>
        <mxCell id="B6rzJg1NiOWsUtKU1mbM-10" value="Reservierung" style="text;html=1;align=center;verticalAlign=middle;rotatable=0;spacingLeft=0;fillColor=none;strokeColor=none;whiteSpace=wrap;fontStyle=1" vertex="1" parent="B6rzJg1NiOWsUtKU1mbM-6">
          <mxGeometry y="70" width="180" height="30" as="geometry" />
        </mxCell>
      </root>
    </mxGraphModel>
  </diagram>
</mxfile>
